<?xml version="1.0" encoding="UTF-8" standalone="no"?>
<!DOCTYPE svg PUBLIC "-//W3C//DTD SVG 1.1//EN" "http://www.w3.org/Graphics/SVG/1.1/DTD/svg11.dtd">
<svg width="100%" height="100%" viewBox="0 0 3000 600" version="1.1" xmlns="http://www.w3.org/2000/svg" xmlns:xlink="http://www.w3.org/1999/xlink" xml:space="preserve" xmlns:serif="http://www.serif.com/" style="fill-rule:evenodd;clip-rule:evenodd;stroke-linejoin:round;stroke-miterlimit:1.41421;">
    <g transform="matrix(1.02694,0,0,1.00778,-458.921,-940.774)">
        <g transform="matrix(-0.128253,0,0,0.225288,1319.82,1139.97)">
            <rect x="606.312" y="1168.5" width="5566.14" height="48.296" style="fill:rgb(250,239,240);"/>
        </g>
        <g transform="matrix(1.05906,0,0,1.05906,70.8802,-521.657)">
            <path d="M424.652,1571.99C424.652,1554.21 427.777,1536.5 434.027,1518.86C440.277,1501.23 449.374,1485.46 461.319,1471.57C473.263,1457.68 487.916,1446.36 505.277,1437.61C522.638,1428.86 542.43,1424.49 564.652,1424.49C591.041,1424.49 613.541,1430.53 632.152,1442.61C650.763,1454.7 664.652,1470.18 673.819,1489.07L656.319,1499.07C651.041,1488.8 644.86,1480.18 637.777,1473.24C630.694,1466.3 623.055,1460.67 614.86,1456.36C606.666,1452.06 598.124,1448.93 589.235,1446.99C580.346,1445.05 571.596,1444.07 562.985,1444.07C544.096,1444.07 527.43,1447.89 512.985,1455.53C498.541,1463.17 486.319,1473.1 476.319,1485.32C466.319,1497.55 458.749,1511.36 453.61,1526.78C448.471,1542.2 445.902,1557.68 445.902,1573.24C445.902,1590.74 448.957,1607.41 455.069,1623.24C461.18,1639.07 469.513,1653.03 480.069,1665.11C490.624,1677.2 503.124,1686.85 517.569,1694.07C532.013,1701.3 547.569,1704.91 564.235,1704.91C573.124,1704.91 582.291,1703.8 591.735,1701.57C601.18,1699.35 610.207,1695.88 618.819,1691.16C627.43,1686.43 635.485,1680.39 642.985,1673.03C650.485,1665.67 656.735,1656.99 661.735,1646.99L680.069,1655.74C675.069,1666.85 668.263,1676.71 659.652,1685.32C651.041,1693.93 641.457,1701.16 630.902,1706.99C620.346,1712.82 609.166,1717.2 597.36,1720.11C585.555,1723.03 573.957,1724.49 562.569,1724.49C542.291,1724.49 523.749,1720.05 506.944,1711.16C490.138,1702.27 475.624,1690.67 463.402,1676.36C451.18,1662.06 441.666,1645.81 434.86,1627.61C428.055,1609.42 424.652,1590.88 424.652,1571.99Z" style="fill:rgb(250,239,240);fill-rule:nonzero;"/>
            <path d="M847.569,1724.07C827.013,1724.07 808.263,1719.77 791.319,1711.16C774.374,1702.55 759.791,1691.3 747.569,1677.41C735.346,1663.52 725.902,1647.55 719.235,1629.49C712.569,1611.43 709.235,1592.96 709.235,1574.07C709.235,1554.35 712.777,1535.46 719.86,1517.41C726.944,1499.35 736.666,1483.38 749.027,1469.49C761.388,1455.6 776.041,1444.56 792.985,1436.36C809.93,1428.17 828.263,1424.07 847.985,1424.07C868.541,1424.07 887.36,1428.45 904.444,1437.2C921.527,1445.95 936.11,1457.41 948.194,1471.57C960.277,1485.74 969.652,1501.78 976.319,1519.7C982.985,1537.61 986.319,1555.74 986.319,1574.07C986.319,1594.07 982.777,1613.1 975.694,1631.16C968.61,1649.21 958.888,1665.11 946.527,1678.86C934.166,1692.61 919.513,1703.59 902.569,1711.78C885.624,1719.98 867.291,1724.07 847.569,1724.07ZM730.485,1574.07C730.485,1591.02 733.332,1607.34 739.027,1623.03C744.721,1638.73 752.777,1652.61 763.194,1664.7C773.61,1676.78 786.041,1686.43 800.485,1693.66C814.93,1700.88 830.763,1704.49 847.985,1704.49C865.763,1704.49 881.805,1700.74 896.11,1693.24C910.416,1685.74 922.638,1675.81 932.777,1663.45C942.916,1651.09 950.763,1637.13 956.319,1621.57C961.874,1606.02 964.652,1590.18 964.652,1574.07C964.652,1557.13 961.735,1540.81 955.902,1525.11C950.069,1509.42 941.944,1495.53 931.527,1483.45C921.11,1471.36 908.819,1461.71 894.652,1454.49C880.485,1447.27 864.93,1443.66 847.985,1443.66C830.207,1443.66 814.096,1447.41 799.652,1454.91C785.207,1462.41 772.846,1472.34 762.569,1484.7C752.291,1497.06 744.374,1511.02 738.819,1526.57C733.263,1542.13 730.485,1557.96 730.485,1574.07Z" style="fill:rgb(250,239,240);fill-rule:nonzero;"/>
            <path d="M1043.4,1721.99L1043.4,1426.16L1166.32,1426.16C1178.82,1426.16 1190.35,1428.8 1200.9,1434.07C1211.46,1439.35 1220.56,1446.36 1228.19,1455.11C1235.83,1463.86 1241.81,1473.73 1246.11,1484.7C1250.42,1495.67 1252.57,1506.71 1252.57,1517.82C1252.57,1528.66 1250.9,1539.14 1247.57,1549.28C1244.24,1559.42 1239.51,1568.52 1233.4,1576.57C1227.29,1584.63 1219.93,1591.3 1211.32,1596.57C1202.71,1601.85 1193.26,1605.32 1182.99,1606.99L1256.74,1721.99L1232.15,1721.99L1160.49,1610.32L1064.65,1610.32L1064.65,1721.99L1043.4,1721.99ZM1064.65,1590.74L1168.4,1590.74C1177.85,1590.74 1186.46,1588.66 1194.24,1584.49C1202.01,1580.32 1208.68,1574.84 1214.24,1568.03C1219.79,1561.23 1224.03,1553.45 1226.94,1544.7C1229.86,1535.95 1231.32,1526.99 1231.32,1517.82C1231.32,1508.38 1229.58,1499.28 1226.11,1490.53C1222.64,1481.78 1217.92,1474.07 1211.94,1467.41C1205.97,1460.74 1199.03,1455.39 1191.11,1451.36C1183.19,1447.34 1174.65,1445.32 1165.49,1445.32L1064.65,1445.32L1064.65,1590.74Z" style="fill:rgb(250,239,240);fill-rule:nonzero;"/>
            <path d="M1510.9,1702.82L1510.9,1721.99L1313.82,1721.99L1313.82,1426.16L1507.15,1426.16L1507.15,1445.32L1335.07,1445.32L1335.07,1561.57L1485.49,1561.57L1485.49,1579.91L1335.07,1579.91L1335.07,1702.82L1510.9,1702.82Z" style="fill:rgb(250,239,240);fill-rule:nonzero;"/>
            <path d="M1561.32,1426.16L1664.65,1589.91L1768.4,1426.16L1792.15,1426.16L1675.49,1610.32L1675.49,1721.99L1654.24,1721.99L1654.24,1609.49L1537.99,1426.16L1561.32,1426.16Z" style="fill:rgb(250,239,240);fill-rule:nonzero;"/>
            <path d="M2071.74,1721.99L2071.74,1526.16L1995.49,1671.99L1964.24,1671.99L1887.99,1526.16L1887.99,1721.99L1830.49,1721.99L1830.49,1426.16L1892.15,1426.16L1979.65,1594.49L2067.99,1426.16L2129.24,1426.16L2129.24,1721.99L2071.74,1721.99Z" style="fill:rgb(250,239,240);fill-rule:nonzero;"/>
            <path d="M2317.15,1724.07C2295.49,1724.07 2275.83,1719.84 2258.19,1711.36C2240.55,1702.89 2225.42,1691.64 2212.78,1677.61C2200.14,1663.59 2190.35,1647.55 2183.4,1629.49C2176.46,1611.43 2172.99,1592.96 2172.99,1574.07C2172.99,1554.35 2176.67,1535.46 2184.03,1517.41C2191.39,1499.35 2201.53,1483.38 2214.44,1469.49C2227.36,1455.6 2242.71,1444.56 2260.49,1436.36C2278.26,1428.17 2297.57,1424.07 2318.4,1424.07C2339.79,1424.07 2359.3,1428.45 2376.94,1437.2C2394.58,1445.95 2409.65,1457.41 2422.15,1471.57C2434.65,1485.74 2444.37,1501.85 2451.32,1519.91C2458.26,1537.96 2461.74,1556.3 2461.74,1574.91C2461.74,1594.63 2458.12,1613.45 2450.9,1631.36C2443.68,1649.28 2433.68,1665.11 2420.9,1678.86C2408.12,1692.61 2392.85,1703.59 2375.07,1711.78C2357.29,1719.98 2337.99,1724.07 2317.15,1724.07ZM2231.32,1574.07C2231.32,1586.85 2233.26,1599.21 2237.15,1611.16C2241.04,1623.1 2246.67,1633.66 2254.03,1642.82C2261.39,1651.99 2270.42,1659.35 2281.11,1664.91C2291.8,1670.46 2303.96,1673.24 2317.57,1673.24C2331.46,1673.24 2343.75,1670.39 2354.44,1664.7C2365.14,1659 2374.17,1651.43 2381.53,1641.99C2388.89,1632.55 2394.44,1621.92 2398.19,1610.11C2401.94,1598.31 2403.82,1586.3 2403.82,1574.07C2403.82,1561.3 2401.8,1548.93 2397.78,1536.99C2393.75,1525.05 2388.05,1514.49 2380.69,1505.32C2373.33,1496.16 2364.3,1488.86 2353.61,1483.45C2342.92,1478.03 2330.9,1475.32 2317.57,1475.32C2303.68,1475.32 2291.32,1478.17 2280.49,1483.86C2269.65,1489.56 2260.62,1497.06 2253.4,1506.36C2246.18,1515.67 2240.69,1526.23 2236.94,1538.03C2233.19,1549.84 2231.32,1561.85 2231.32,1574.07Z" style="fill:rgb(250,239,240);fill-rule:nonzero;"/>
            <path d="M2487.99,1571.99C2487.99,1553.93 2491.25,1536.09 2497.78,1518.45C2504.3,1500.81 2513.82,1485.05 2526.32,1471.16C2538.82,1457.27 2554.1,1446.02 2572.15,1437.41C2590.21,1428.8 2610.76,1424.49 2633.82,1424.49C2661.04,1424.49 2684.58,1430.46 2704.44,1442.41C2724.3,1454.35 2739.1,1469.91 2748.82,1489.07L2704.65,1519.49C2700.76,1511.16 2696.04,1504.14 2690.49,1498.45C2684.93,1492.75 2678.96,1488.24 2672.57,1484.91C2666.18,1481.57 2659.51,1479.14 2652.57,1477.61C2645.62,1476.09 2638.82,1475.32 2632.15,1475.32C2617.71,1475.32 2605.14,1478.24 2594.44,1484.07C2583.75,1489.91 2574.86,1497.48 2567.78,1506.78C2560.69,1516.09 2555.35,1526.64 2551.74,1538.45C2548.12,1550.25 2546.32,1561.99 2546.32,1573.66C2546.32,1586.71 2548.4,1599.28 2552.57,1611.36C2556.74,1623.45 2562.64,1634.07 2570.28,1643.24C2577.92,1652.41 2587.08,1659.77 2597.78,1665.32C2608.47,1670.88 2620.21,1673.66 2632.99,1673.66C2639.65,1673.66 2646.6,1672.82 2653.82,1671.16C2661.04,1669.49 2667.92,1666.85 2674.44,1663.24C2680.97,1659.63 2687.01,1654.98 2692.57,1649.28C2698.12,1643.59 2702.57,1636.71 2705.9,1628.66L2752.99,1655.74C2748.26,1666.85 2741.53,1676.64 2732.78,1685.11C2724.03,1693.59 2714.17,1700.74 2703.19,1706.57C2692.22,1712.41 2680.49,1716.85 2667.99,1719.91C2655.49,1722.96 2643.26,1724.49 2631.32,1724.49C2610.21,1724.49 2590.9,1720.05 2573.4,1711.16C2555.9,1702.27 2540.83,1690.67 2528.19,1676.36C2515.55,1662.06 2505.69,1645.81 2498.61,1627.61C2491.53,1609.42 2487.99,1590.88 2487.99,1571.99Z" style="fill:rgb(250,239,240);fill-rule:nonzero;"/>
            <path d="M2791.74,1721.99L2791.74,1426.57L2849.24,1426.57L2849.24,1566.99L2973.4,1426.16L3036.74,1426.16L2923.4,1557.41L3043.82,1721.99L2979.24,1721.99L2887.15,1594.07L2849.24,1633.66L2849.24,1721.99L2791.74,1721.99Z" style="fill:rgb(250,239,240);fill-rule:nonzero;"/>
        </g>
        <g transform="matrix(0.37977,0,0,0.386989,1547.15,822.319)">
            <path d="M-618.992,1424.07L-618.992,1618.29L-635.124,1618.29L-635.124,1393.71L-622.788,1393.71L-465.265,1591.4L-465.265,1393.71L-449.133,1393.71L-449.133,1618.29L-464,1618.29L-618.992,1424.07Z" style="fill:rgb(250,239,240);fill-rule:nonzero;"/>
            <path d="M-328.619,1621.45C-340.217,1621.45 -350.919,1619.18 -360.724,1614.65C-370.53,1610.12 -379.018,1603.95 -386.187,1596.14C-393.357,1588.34 -398.945,1579.28 -402.952,1568.94C-406.959,1558.61 -408.962,1547.75 -408.962,1536.36C-408.962,1524.76 -406.906,1513.8 -402.794,1503.47C-398.682,1493.13 -393.041,1484.07 -385.871,1476.26C-378.701,1468.46 -370.214,1462.29 -360.408,1457.76C-350.602,1453.23 -340.006,1450.96 -328.619,1450.96C-317.232,1450.96 -306.688,1453.23 -296.988,1457.76C-287.288,1462.29 -278.8,1468.46 -271.525,1476.26C-264.25,1484.07 -258.556,1493.13 -254.444,1503.47C-250.332,1513.8 -248.276,1524.76 -248.276,1536.36C-248.276,1547.75 -250.332,1558.61 -254.444,1568.94C-258.556,1579.28 -264.197,1588.34 -271.367,1596.14C-278.536,1603.95 -287.024,1610.12 -296.83,1614.65C-306.635,1619.18 -317.232,1621.45 -328.619,1621.45ZM-393.146,1537C-393.146,1546.69 -391.459,1555.82 -388.085,1564.36C-384.711,1572.9 -380.125,1580.33 -374.326,1586.66C-368.527,1592.98 -361.726,1597.99 -353.924,1601.68C-346.121,1605.37 -337.792,1607.22 -328.935,1607.22C-320.078,1607.22 -311.749,1605.37 -303.947,1601.68C-296.144,1597.99 -289.291,1592.88 -283.386,1586.34C-277.482,1579.8 -272.843,1572.26 -269.469,1563.72C-266.095,1555.18 -264.408,1545.96 -264.408,1536.05C-264.408,1526.35 -266.095,1517.23 -269.469,1508.68C-272.843,1500.14 -277.482,1492.66 -283.386,1486.23C-289.291,1479.8 -296.092,1474.68 -303.788,1470.89C-311.485,1467.09 -319.762,1465.19 -328.619,1465.19C-337.476,1465.19 -345.805,1467.09 -353.607,1470.89C-361.41,1474.68 -368.21,1479.85 -374.009,1486.38C-379.809,1492.92 -384.448,1500.57 -387.927,1509.32C-391.407,1518.07 -393.146,1527.3 -393.146,1537Z" style="fill:rgb(250,239,240);fill-rule:nonzero;"/>
            <path d="M-132.506,1468.04C-147.267,1468.46 -160.183,1472.84 -171.254,1481.17C-182.325,1489.5 -190.075,1500.94 -194.503,1515.49L-194.503,1618.29L-210.319,1618.29L-210.319,1453.81L-195.136,1453.81L-195.136,1494.29C-189.442,1482.69 -181.903,1473.26 -172.519,1465.98C-163.136,1458.71 -153.066,1454.54 -142.312,1453.49C-140.203,1453.28 -138.305,1453.17 -136.618,1453.17C-134.931,1453.17 -133.56,1453.17 -132.506,1453.17L-132.506,1468.04Z" style="fill:rgb(250,239,240);fill-rule:nonzero;"/>
            <path d="M-29.072,1610.38C-29.916,1610.8 -31.339,1611.59 -33.343,1612.75C-35.346,1613.91 -37.876,1615.02 -40.934,1616.07C-43.992,1617.13 -47.419,1618.08 -51.214,1618.92C-55.01,1619.76 -59.122,1620.18 -63.55,1620.18C-67.979,1620.18 -72.143,1619.55 -76.045,1618.29C-79.946,1617.02 -83.373,1615.12 -86.325,1612.59C-89.277,1610.06 -91.597,1607.01 -93.284,1603.42C-94.971,1599.84 -95.814,1595.62 -95.814,1590.77L-95.814,1466.77L-118.905,1466.77L-118.905,1453.81L-95.814,1453.81L-95.814,1397.5L-79.999,1397.5L-79.999,1453.81L-41.725,1453.81L-41.725,1466.77L-79.999,1466.77L-79.999,1586.97C-79.999,1593.09 -77.89,1597.67 -73.672,1600.73C-69.455,1603.79 -64.71,1605.32 -59.438,1605.32C-52.901,1605.32 -47.26,1604.21 -42.516,1602C-37.771,1599.78 -34.872,1598.36 -33.817,1597.73L-29.072,1610.38Z" style="fill:rgb(250,239,240);fill-rule:nonzero;"/>
            <path d="M133.195,1618.29L117.379,1618.29L117.379,1526.56C117.379,1485.86 103.778,1465.51 76.575,1465.51C69.827,1465.51 63.238,1466.77 56.806,1469.31C50.374,1471.84 44.364,1475.42 38.776,1480.06C33.188,1484.7 28.285,1490.13 24.068,1496.35C19.85,1502.57 16.687,1509.27 14.578,1516.43L14.578,1618.29L-1.237,1618.29L-1.237,1387.38L14.578,1387.38L14.578,1493.03C21.326,1480.16 30.658,1469.94 42.572,1462.35C54.486,1454.75 67.297,1450.96 81.004,1450.96C90.071,1450.96 97.874,1452.65 104.411,1456.02C110.948,1459.39 116.378,1464.24 120.701,1470.57C125.024,1476.9 128.187,1484.54 130.19,1493.5C132.193,1502.46 133.195,1512.53 133.195,1523.71L133.195,1618.29Z" style="fill:rgb(250,239,240);fill-rule:nonzero;"/>
            <path d="M266.994,1618.29L266.994,1393.71L341.644,1393.71C359.357,1393.71 374.909,1396.66 388.3,1402.56C401.69,1408.47 412.814,1416.48 421.671,1426.6C430.527,1436.73 437.17,1448.59 441.598,1462.19C446.026,1475.79 448.241,1490.29 448.241,1505.68C448.241,1522.76 445.763,1538.21 440.807,1552.02C435.852,1565.83 428.735,1577.64 419.456,1587.45C410.178,1597.25 398.949,1604.84 385.769,1610.22C372.59,1615.6 357.881,1618.29 341.644,1618.29L266.994,1618.29ZM432.109,1505.68C432.109,1491.55 430.105,1478.53 426.099,1466.62C422.092,1454.7 416.241,1444.42 408.544,1435.78C400.847,1427.13 391.41,1420.38 380.234,1415.53C369.057,1410.68 356.194,1408.26 341.644,1408.26L283.126,1408.26L283.126,1603.74L341.644,1603.74C356.405,1603.74 369.427,1601.26 380.708,1596.3C391.99,1591.35 401.427,1584.44 409.018,1575.59C416.61,1566.73 422.356,1556.34 426.257,1544.43C430.158,1532.51 432.109,1519.6 432.109,1505.68Z" style="fill:rgb(250,239,240);fill-rule:nonzero;"/>
            <path d="M528.267,1621.45C520.676,1621.45 513.612,1620.13 507.074,1617.5C500.537,1614.86 494.791,1611.28 489.836,1606.74C484.88,1602.21 481.032,1596.83 478.29,1590.61C475.549,1584.39 474.178,1577.69 474.178,1570.52C474.178,1563.35 475.865,1556.82 479.239,1550.91C482.613,1545.01 487.305,1539.89 493.315,1535.57C499.325,1531.25 506.547,1527.88 514.982,1525.45C523.417,1523.03 532.696,1521.81 542.818,1521.81C551.674,1521.81 560.584,1522.6 569.546,1524.18C578.508,1525.77 586.574,1527.93 593.744,1530.67L593.744,1514.54C593.744,1498.93 589.315,1486.54 580.459,1477.37C571.602,1468.2 559.582,1463.61 544.399,1463.61C536.386,1463.61 527.898,1465.3 518.936,1468.67C509.974,1472.05 500.854,1476.9 491.575,1483.22L485.565,1472.47C506.653,1458.13 526.686,1450.96 545.664,1450.96C565.487,1450.96 581.091,1456.7 592.478,1468.2C603.866,1479.69 609.559,1495.56 609.559,1515.8L609.559,1596.14C609.559,1601.42 611.879,1604.05 616.518,1604.05L616.518,1618.29C615.464,1618.5 614.357,1618.66 613.197,1618.76C612.037,1618.87 611.035,1618.92 610.192,1618.92C605.974,1618.92 602.6,1617.5 600.07,1614.65C597.539,1611.8 596.063,1608.38 595.641,1604.37L595.641,1590.77C588.05,1600.68 578.35,1608.27 566.541,1613.54C554.732,1618.81 541.974,1621.45 528.267,1621.45ZM531.43,1608.8C543.661,1608.8 554.89,1606.48 565.117,1601.84C575.345,1597.2 583.2,1591.08 588.683,1583.49C592.057,1579.07 593.744,1574.85 593.744,1570.84L593.744,1541.74C586.152,1538.79 578.244,1536.57 570.02,1535.1C561.796,1533.62 553.256,1532.88 544.399,1532.88C536.175,1532.88 528.689,1533.78 521.941,1535.57C515.193,1537.36 509.394,1539.84 504.544,1543.01C499.694,1546.17 495.951,1550.02 493.315,1554.55C490.679,1559.08 489.361,1564.09 489.361,1569.58C489.361,1575.06 490.415,1580.22 492.524,1585.07C494.633,1589.92 497.585,1594.09 501.381,1597.57C505.177,1601.05 509.658,1603.79 514.824,1605.79C519.99,1607.8 525.526,1608.8 531.43,1608.8Z" style="fill:rgb(250,239,240);fill-rule:nonzero;"/>
            <path d="M776.571,1618.29L712.36,1530.35L673.454,1566.1L673.454,1618.29L657.638,1618.29L657.638,1387.38L673.454,1387.38L673.454,1548.7L773.408,1454.12L791.754,1454.12L723.115,1520.86L793.968,1618.29L776.571,1618.29Z" style="fill:rgb(250,239,240);fill-rule:nonzero;"/>
            <path d="M883.168,1621.45C871.57,1621.45 860.868,1619.18 851.063,1614.65C841.257,1610.12 832.769,1603.95 825.599,1596.14C818.43,1588.34 812.842,1579.28 808.835,1568.94C804.828,1558.61 802.825,1547.75 802.825,1536.36C802.825,1524.76 804.881,1513.8 808.993,1503.47C813.105,1493.13 818.746,1484.07 825.916,1476.26C833.086,1468.46 841.573,1462.29 851.379,1457.76C861.184,1453.23 871.781,1450.96 883.168,1450.96C894.555,1450.96 905.099,1453.23 914.799,1457.76C924.499,1462.29 932.987,1468.46 940.262,1476.26C947.537,1484.07 953.231,1493.13 957.343,1503.47C961.455,1513.8 963.511,1524.76 963.511,1536.36C963.511,1547.75 961.455,1558.61 957.343,1568.94C953.231,1579.28 947.59,1588.34 940.42,1596.14C933.251,1603.95 924.763,1610.12 914.957,1614.65C905.152,1619.18 894.555,1621.45 883.168,1621.45ZM818.641,1537C818.641,1546.69 820.328,1555.82 823.702,1564.36C827.076,1572.9 831.662,1580.33 837.461,1586.66C843.26,1592.98 850.061,1597.99 857.863,1601.68C865.666,1605.37 873.995,1607.22 882.852,1607.22C891.708,1607.22 900.038,1605.37 907.84,1601.68C915.643,1597.99 922.496,1592.88 928.401,1586.34C934.305,1579.8 938.944,1572.26 942.318,1563.72C945.692,1555.18 947.379,1545.96 947.379,1536.05C947.379,1526.35 945.692,1517.23 942.318,1508.68C938.944,1500.14 934.305,1492.66 928.401,1486.23C922.496,1479.8 915.695,1474.68 907.998,1470.89C900.302,1467.09 892.025,1465.19 883.168,1465.19C874.311,1465.19 865.982,1467.09 858.18,1470.89C850.377,1474.68 843.576,1479.85 837.777,1486.38C831.978,1492.92 827.339,1500.57 823.86,1509.32C820.38,1518.07 818.641,1527.3 818.641,1537Z" style="fill:rgb(250,239,240);fill-rule:nonzero;"/>
            <path d="M1072.64,1610.38C1071.8,1610.8 1070.37,1611.59 1068.37,1612.75C1066.37,1613.91 1063.83,1615.02 1060.78,1616.07C1057.72,1617.13 1054.29,1618.08 1050.5,1618.92C1046.7,1619.76 1042.59,1620.18 1038.16,1620.18C1033.73,1620.18 1029.57,1619.55 1025.67,1618.29C1021.76,1617.02 1018.34,1615.12 1015.39,1612.59C1012.43,1610.06 1010.11,1607.01 1008.43,1603.42C1006.74,1599.84 1005.9,1595.62 1005.9,1590.77L1005.9,1466.77L982.806,1466.77L982.806,1453.81L1005.9,1453.81L1005.9,1397.5L1021.71,1397.5L1021.71,1453.81L1059.99,1453.81L1059.99,1466.77L1021.71,1466.77L1021.71,1586.97C1021.71,1593.09 1023.82,1597.67 1028.04,1600.73C1032.26,1603.79 1037,1605.32 1042.27,1605.32C1048.81,1605.32 1054.45,1604.21 1059.19,1602C1063.94,1599.78 1066.84,1598.36 1067.89,1597.73L1072.64,1610.38Z" style="fill:rgb(250,239,240);fill-rule:nonzero;"/>
            <path d="M1140.96,1621.45C1133.37,1621.45 1126.31,1620.13 1119.77,1617.5C1113.23,1614.86 1107.49,1611.28 1102.53,1606.74C1097.57,1602.21 1093.73,1596.83 1090.98,1590.61C1088.24,1584.39 1086.87,1577.69 1086.87,1570.52C1086.87,1563.35 1088.56,1556.82 1091.93,1550.91C1095.31,1545.01 1100,1539.89 1106.01,1535.57C1112.02,1531.25 1119.24,1527.88 1127.68,1525.45C1136.11,1523.03 1145.39,1521.81 1155.51,1521.81C1164.37,1521.81 1173.28,1522.6 1182.24,1524.18C1191.2,1525.77 1199.27,1527.93 1206.44,1530.67L1206.44,1514.54C1206.44,1498.93 1202.01,1486.54 1193.15,1477.37C1184.3,1468.2 1172.28,1463.61 1157.09,1463.61C1149.08,1463.61 1140.59,1465.3 1131.63,1468.67C1122.67,1472.05 1113.55,1476.9 1104.27,1483.22L1098.26,1472.47C1119.35,1458.13 1139.38,1450.96 1158.36,1450.96C1178.18,1450.96 1193.79,1456.7 1205.17,1468.2C1216.56,1479.69 1222.25,1495.56 1222.25,1515.8L1222.25,1596.14C1222.25,1601.42 1224.57,1604.05 1229.21,1604.05L1229.21,1618.29C1228.16,1618.5 1227.05,1618.66 1225.89,1618.76C1224.73,1618.87 1223.73,1618.92 1222.89,1618.92C1218.67,1618.92 1215.29,1617.5 1212.76,1614.65C1210.23,1611.8 1208.76,1608.38 1208.34,1604.37L1208.34,1590.77C1200.74,1600.68 1191.04,1608.27 1179.24,1613.54C1167.43,1618.81 1154.67,1621.45 1140.96,1621.45ZM1144.13,1608.8C1156.36,1608.8 1167.58,1606.48 1177.81,1601.84C1188.04,1597.2 1195.89,1591.08 1201.38,1583.49C1204.75,1579.07 1206.44,1574.85 1206.44,1570.84L1206.44,1541.74C1198.85,1538.79 1190.94,1536.57 1182.71,1535.1C1174.49,1533.62 1165.95,1532.88 1157.09,1532.88C1148.87,1532.88 1141.38,1533.78 1134.63,1535.57C1127.89,1537.36 1122.09,1539.84 1117.24,1543.01C1112.39,1546.17 1108.64,1550.02 1106.01,1554.55C1103.37,1559.08 1102.06,1564.09 1102.06,1569.58C1102.06,1575.06 1103.11,1580.22 1105.22,1585.07C1107.33,1589.92 1110.28,1594.09 1114.08,1597.57C1117.87,1601.05 1122.35,1603.79 1127.52,1605.79C1132.68,1607.8 1138.22,1608.8 1144.13,1608.8Z" style="fill:rgb(250,239,240);fill-rule:nonzero;"/>
            <path d="M1530.34,1393.71L1530.34,1618.29L1514.21,1618.29L1514.21,1510.74L1372.5,1510.74L1372.5,1618.29L1356.37,1618.29L1356.37,1393.71L1372.5,1393.71L1372.5,1496.19L1514.21,1496.19L1514.21,1393.71L1530.34,1393.71Z" style="fill:rgb(250,239,240);fill-rule:nonzero;"/>
            <path d="M1650.86,1621.45C1639.26,1621.45 1628.56,1619.18 1618.75,1614.65C1608.94,1610.12 1600.46,1603.95 1593.29,1596.14C1586.12,1588.34 1580.53,1579.28 1576.52,1568.94C1572.52,1558.61 1570.51,1547.75 1570.51,1536.36C1570.51,1524.76 1572.57,1513.8 1576.68,1503.47C1580.79,1493.13 1586.43,1484.07 1593.6,1476.26C1600.77,1468.46 1609.26,1462.29 1619.07,1457.76C1628.87,1453.23 1639.47,1450.96 1650.86,1450.96C1662.24,1450.96 1672.79,1453.23 1682.49,1457.76C1692.19,1462.29 1700.67,1468.46 1707.95,1476.26C1715.22,1484.07 1720.92,1493.13 1725.03,1503.47C1729.14,1513.8 1731.2,1524.76 1731.2,1536.36C1731.2,1547.75 1729.14,1558.61 1725.03,1568.94C1720.92,1579.28 1715.28,1588.34 1708.11,1596.14C1700.94,1603.95 1692.45,1610.12 1682.64,1614.65C1672.84,1619.18 1662.24,1621.45 1650.86,1621.45ZM1586.33,1537C1586.33,1546.69 1588.01,1555.82 1591.39,1564.36C1594.76,1572.9 1599.35,1580.33 1605.15,1586.66C1610.95,1592.98 1617.75,1597.99 1625.55,1601.68C1633.35,1605.37 1641.68,1607.22 1650.54,1607.22C1659.39,1607.22 1667.72,1605.37 1675.53,1601.68C1683.33,1597.99 1690.18,1592.88 1696.09,1586.34C1701.99,1579.8 1706.63,1572.26 1710.01,1563.72C1713.38,1555.18 1715.07,1545.96 1715.07,1536.05C1715.07,1526.35 1713.38,1517.23 1710.01,1508.68C1706.63,1500.14 1701.99,1492.66 1696.09,1486.23C1690.18,1479.8 1683.38,1474.68 1675.68,1470.89C1667.99,1467.09 1659.71,1465.19 1650.86,1465.19C1642,1465.19 1633.67,1467.09 1625.87,1470.89C1618.06,1474.68 1611.26,1479.85 1605.46,1486.38C1599.66,1492.92 1595.03,1500.57 1591.55,1509.32C1588.07,1518.07 1586.33,1527.3 1586.33,1537Z" style="fill:rgb(250,239,240);fill-rule:nonzero;"/>
            <path d="M1820.08,1621.45C1785.08,1621.45 1767.57,1597.2 1767.57,1548.7L1767.57,1453.81L1783.39,1453.81L1783.39,1546.48C1783.39,1586.97 1797.2,1607.22 1824.83,1607.22C1831.78,1607.22 1838.53,1606 1845.07,1603.58C1851.61,1601.15 1857.72,1597.78 1863.41,1593.46C1869.11,1589.13 1874.12,1583.91 1878.44,1577.8C1882.76,1571.68 1886.19,1564.94 1888.72,1557.56L1888.72,1453.81L1904.54,1453.81L1904.54,1596.14C1904.54,1601.42 1906.75,1604.05 1911.18,1604.05L1911.18,1618.29C1910.12,1618.5 1909.17,1618.6 1908.33,1618.6C1907.49,1618.6 1906.86,1618.6 1906.43,1618.6C1902.22,1618.6 1898.47,1617.29 1895.2,1614.65C1891.94,1612.01 1890.3,1608.48 1890.3,1604.05L1890.3,1579.38C1883.13,1592.67 1873.27,1603 1860.73,1610.38C1848.18,1617.76 1834.63,1621.45 1820.08,1621.45Z" style="fill:rgb(250,239,240);fill-rule:nonzero;"/>
            <path d="M2007.02,1621.45C1994.37,1621.45 1982.24,1619.34 1970.64,1615.12C1959.05,1610.91 1948.92,1604.58 1940.28,1596.14L1948.19,1585.39C1957.04,1593.4 1966.22,1599.31 1975.71,1603.1C1985.19,1606.9 1995.63,1608.8 2007.02,1608.8C2021.36,1608.8 2032.9,1605.79 2041.66,1599.78C2050.41,1593.77 2054.78,1585.39 2054.78,1574.64C2054.78,1569.58 2053.68,1565.31 2051.46,1561.83C2049.25,1558.35 2045.93,1555.39 2041.5,1552.97C2037.07,1550.54 2031.59,1548.38 2025.05,1546.48C2018.51,1544.59 2010.92,1542.58 2002.28,1540.48C1993,1538.37 1984.93,1536.26 1978.08,1534.15C1971.23,1532.04 1965.58,1529.51 1961.16,1526.56C1956.73,1523.61 1953.41,1520.02 1951.19,1515.8C1948.98,1511.59 1947.87,1506.21 1947.87,1499.67C1947.87,1491.45 1949.45,1484.28 1952.62,1478.16C1955.78,1472.05 1960.15,1466.99 1965.74,1462.98C1971.33,1458.97 1977.76,1455.97 1985.04,1453.96C1992.31,1451.96 2000.06,1450.96 2008.29,1450.96C2021.15,1450.96 2032.54,1453.12 2042.45,1457.44C2052.36,1461.77 2060.05,1467.3 2065.54,1474.05L2056.68,1482.59C2051.2,1476.26 2044.08,1471.52 2035.33,1468.36C2026.58,1465.19 2017.25,1463.61 2007.34,1463.61C2001.22,1463.61 1995.48,1464.24 1990.1,1465.51C1984.72,1466.77 1980.03,1468.78 1976.02,1471.52C1972.02,1474.26 1968.85,1477.79 1966.53,1482.12C1964.21,1486.44 1963.05,1491.55 1963.05,1497.46C1963.05,1502.31 1963.84,1506.21 1965.43,1509.16C1967.01,1512.11 1969.54,1514.64 1973.02,1516.75C1976.5,1518.86 1980.98,1520.7 1986.46,1522.29C1991.94,1523.87 1998.48,1525.61 2006.07,1527.51C2016.4,1530.04 2025.58,1532.46 2033.59,1534.78C2041.6,1537.1 2048.3,1539.95 2053.68,1543.32C2059.05,1546.69 2063.17,1550.7 2066.01,1555.34C2068.86,1559.98 2070.28,1565.88 2070.28,1573.06C2070.28,1587.82 2064.54,1599.57 2053.04,1608.32C2041.55,1617.08 2026.21,1621.45 2007.02,1621.45Z" style="fill:rgb(250,239,240);fill-rule:nonzero;"/>
            <path d="M2176.88,1621.45C2165.28,1621.45 2154.53,1619.18 2144.62,1614.65C2134.7,1610.12 2126.11,1603.89 2118.84,1595.99C2111.56,1588.08 2105.87,1578.96 2101.76,1568.63C2097.64,1558.29 2095.59,1547.22 2095.59,1535.41C2095.59,1523.82 2097.64,1512.9 2101.76,1502.67C2105.87,1492.45 2111.51,1483.49 2118.68,1475.79C2125.85,1468.09 2134.34,1462.03 2144.14,1457.6C2153.95,1453.17 2164.54,1450.96 2175.93,1450.96C2187.53,1450.96 2198.28,1453.23 2208.19,1457.76C2218.11,1462.29 2226.65,1468.41 2233.82,1476.11C2240.99,1483.8 2246.57,1492.76 2250.58,1502.99C2254.59,1513.22 2256.59,1524.03 2256.59,1535.41C2256.59,1536.47 2256.59,1537.79 2256.59,1539.37C2256.59,1540.95 2256.48,1541.95 2256.27,1542.37L2112.04,1542.37C2112.67,1551.86 2114.88,1560.67 2118.68,1568.78C2122.47,1576.9 2127.27,1583.91 2133.07,1589.82C2138.87,1595.72 2145.57,1600.36 2153.16,1603.74C2160.75,1607.11 2168.87,1608.8 2177.51,1608.8C2183.21,1608.8 2188.79,1608.01 2194.28,1606.42C2199.76,1604.84 2204.87,1602.68 2209.62,1599.94C2214.36,1597.2 2218.58,1593.88 2222.27,1589.98C2225.96,1586.08 2228.86,1581.81 2230.97,1577.17L2244.89,1580.96C2242.57,1586.87 2239.14,1592.3 2234.61,1597.25C2230.07,1602.21 2224.8,1606.48 2218.79,1610.06C2212.78,1613.65 2206.19,1616.44 2199.02,1618.44C2191.85,1620.45 2184.47,1621.45 2176.88,1621.45ZM2241.41,1529.72C2240.77,1520.02 2238.61,1511.16 2234.92,1503.15C2231.23,1495.14 2226.49,1488.23 2220.69,1482.43C2214.89,1476.63 2208.19,1472.1 2200.6,1468.83C2193.01,1465.56 2184.89,1463.93 2176.25,1463.93C2167.6,1463.93 2159.48,1465.56 2151.89,1468.83C2144.3,1472.1 2137.6,1476.63 2131.8,1482.43C2126.01,1488.23 2121.37,1495.19 2117.89,1503.31C2114.41,1511.43 2112.35,1520.23 2111.72,1529.72L2241.41,1529.72Z" style="fill:rgb(250,239,240);fill-rule:nonzero;"/>
            <path d="M2580.81,1618.29L2580.81,1424.07L2492.24,1575.59L2482.12,1575.59L2393.55,1424.07L2393.55,1618.29L2377.42,1618.29L2377.42,1393.71L2393.55,1393.71L2487.18,1554.39L2580.81,1393.71L2596.94,1393.71L2596.94,1618.29L2580.81,1618.29Z" style="fill:rgb(250,239,240);fill-rule:nonzero;"/>
            <path d="M2651.03,1618.29L2651.03,1453.81L2666.85,1453.81L2666.85,1618.29L2651.03,1618.29ZM2651.03,1416.48L2651.03,1387.38L2666.85,1387.38L2666.85,1416.48L2651.03,1416.48Z" style="fill:rgb(250,239,240);fill-rule:nonzero;"/>
            <path d="M2850.94,1618.29L2835.12,1618.29L2835.12,1526.56C2835.12,1505.26 2832.12,1489.76 2826.11,1480.06C2820.1,1470.36 2810.56,1465.51 2797.48,1465.51C2790.52,1465.51 2783.62,1466.77 2776.76,1469.31C2769.91,1471.84 2763.53,1475.42 2757.63,1480.06C2751.72,1484.7 2746.55,1490.13 2742.13,1496.35C2737.7,1502.57 2734.43,1509.27 2732.32,1516.43L2732.32,1618.29L2716.51,1618.29L2716.51,1453.81L2731.37,1453.81L2731.37,1493.03C2734.75,1486.7 2738.91,1480.95 2743.87,1475.79C2748.82,1470.62 2754.41,1466.19 2760.63,1462.5C2766.85,1458.81 2773.44,1455.97 2780.4,1453.96C2787.36,1451.96 2794.53,1450.96 2801.91,1450.96C2819.83,1450.96 2832.49,1457.23 2839.87,1469.78C2847.25,1482.33 2850.94,1500.3 2850.94,1523.71L2850.94,1618.29Z" style="fill:rgb(250,239,240);fill-rule:nonzero;"/>
            <path d="M2967.66,1621.45C2956.06,1621.45 2945.36,1619.18 2935.55,1614.65C2925.74,1610.12 2917.26,1603.95 2910.09,1596.14C2902.92,1588.34 2897.33,1579.28 2893.32,1568.94C2889.32,1558.61 2887.31,1547.75 2887.31,1536.36C2887.31,1524.76 2889.37,1513.8 2893.48,1503.47C2897.59,1493.13 2903.24,1484.07 2910.4,1476.26C2917.57,1468.46 2926.06,1462.29 2935.87,1457.76C2945.67,1453.23 2956.27,1450.96 2967.66,1450.96C2979.04,1450.96 2989.59,1453.23 2999.29,1457.76C3008.99,1462.29 3017.48,1468.46 3024.75,1476.26C3032.03,1484.07 3037.72,1493.13 3041.83,1503.47C3045.94,1513.8 3048,1524.76 3048,1536.36C3048,1547.75 3045.94,1558.61 3041.83,1568.94C3037.72,1579.28 3032.08,1588.34 3024.91,1596.14C3017.74,1603.95 3009.25,1610.12 2999.45,1614.65C2989.64,1619.18 2979.04,1621.45 2967.66,1621.45ZM2903.13,1537C2903.13,1546.69 2904.82,1555.82 2908.19,1564.36C2911.56,1572.9 2916.15,1580.33 2921.95,1586.66C2927.75,1592.98 2934.55,1597.99 2942.35,1601.68C2950.15,1605.37 2958.48,1607.22 2967.34,1607.22C2976.2,1607.22 2984.53,1605.37 2992.33,1601.68C3000.13,1597.99 3006.99,1592.88 3012.89,1586.34C3018.79,1579.8 3023.43,1572.26 3026.81,1563.72C3030.18,1555.18 3031.87,1545.96 3031.87,1536.05C3031.87,1526.35 3030.18,1517.23 3026.81,1508.68C3023.43,1500.14 3018.79,1492.66 3012.89,1486.23C3006.99,1479.8 3000.18,1474.68 2992.49,1470.89C2984.79,1467.09 2976.51,1465.19 2967.66,1465.19C2958.8,1465.19 2950.47,1467.09 2942.67,1470.89C2934.87,1474.68 2928.07,1479.85 2922.27,1486.38C2916.47,1492.92 2911.83,1500.57 2908.35,1509.32C2904.87,1518.07 2903.13,1527.3 2903.13,1537Z" style="fill:rgb(250,239,240);fill-rule:nonzero;"/>
            <path d="M3163.77,1468.04C3149.01,1468.46 3136.09,1472.84 3125.02,1481.17C3113.95,1489.5 3106.2,1500.94 3101.77,1515.49L3101.77,1618.29L3085.96,1618.29L3085.96,1453.81L3101.14,1453.81L3101.14,1494.29C3106.83,1482.69 3114.37,1473.26 3123.76,1465.98C3133.14,1458.71 3143.21,1454.54 3153.96,1453.49C3156.07,1453.28 3157.97,1453.17 3159.66,1453.17C3161.34,1453.17 3162.72,1453.17 3163.77,1453.17L3163.77,1468.04Z" style="fill:rgb(250,239,240);fill-rule:nonzero;"/>
            <path d="M3193.82,1618.29L3193.82,1453.81L3209.63,1453.81L3209.63,1618.29L3193.82,1618.29ZM3193.82,1416.48L3193.82,1387.38L3209.63,1387.38L3209.63,1416.48L3193.82,1416.48Z" style="fill:rgb(250,239,240);fill-rule:nonzero;"/>
            <path d="M3332.68,1610.38C3331.84,1610.8 3330.41,1611.59 3328.41,1612.75C3326.41,1613.91 3323.88,1615.02 3320.82,1616.07C3317.76,1617.13 3314.33,1618.08 3310.54,1618.92C3306.74,1619.76 3302.63,1620.18 3298.2,1620.18C3293.77,1620.18 3289.61,1619.55 3285.71,1618.29C3281.81,1617.02 3278.38,1615.12 3275.43,1612.59C3272.47,1610.06 3270.16,1607.01 3268.47,1603.42C3266.78,1599.84 3265.94,1595.62 3265.94,1590.77L3265.94,1466.77L3242.85,1466.77L3242.85,1453.81L3265.94,1453.81L3265.94,1397.5L3281.75,1397.5L3281.75,1453.81L3320.03,1453.81L3320.03,1466.77L3281.75,1466.77L3281.75,1586.97C3281.75,1593.09 3283.86,1597.67 3288.08,1600.73C3292.3,1603.79 3297.04,1605.32 3302.31,1605.32C3308.85,1605.32 3314.49,1604.21 3319.24,1602C3323.98,1599.78 3326.88,1598.36 3327.93,1597.73L3332.68,1610.38Z" style="fill:rgb(250,239,240);fill-rule:nonzero;"/>
            <path d="M3371.59,1673.96C3372.64,1674.17 3374.22,1674.27 3376.33,1674.27C3378.44,1674.27 3380.39,1674.17 3382.18,1673.96C3383.97,1673.75 3385.71,1673.22 3387.4,1672.38C3388.67,1671.74 3389.83,1670.85 3390.88,1669.69C3391.93,1668.53 3393.41,1666.15 3395.31,1662.57C3397.21,1658.99 3399.63,1653.71 3402.58,1646.76C3405.54,1639.8 3409.54,1630.31 3414.6,1618.29L3341.22,1453.81L3357.67,1453.81L3423.14,1602.79L3484.19,1453.81L3499.69,1453.81L3409.54,1670.16C3407.22,1676.07 3403.48,1680.65 3398.31,1683.92C3393.15,1687.19 3386.14,1688.82 3377.28,1688.82C3376.44,1688.82 3375.54,1688.82 3374.59,1688.82C3373.64,1688.82 3372.64,1688.72 3371.59,1688.51L3371.59,1673.96Z" style="fill:rgb(250,239,240);fill-rule:nonzero;"/>
            <path d="M3608.82,1618.29L3608.82,1393.71L3624.95,1393.71L3624.95,1603.74L3759.07,1603.74L3759.07,1618.29L3608.82,1618.29Z" style="fill:rgb(250,239,240);fill-rule:nonzero;"/>
            <path d="M3851.11,1621.45C3839.51,1621.45 3828.76,1619.18 3818.85,1614.65C3808.94,1610.12 3800.35,1603.89 3793.07,1595.99C3785.8,1588.08 3780.1,1578.96 3775.99,1568.63C3771.88,1558.29 3769.82,1547.22 3769.82,1535.41C3769.82,1523.82 3771.88,1512.9 3775.99,1502.67C3780.1,1492.45 3785.74,1483.49 3792.91,1475.79C3800.08,1468.09 3808.57,1462.03 3818.38,1457.6C3828.18,1453.17 3838.78,1450.96 3850.16,1450.96C3861.76,1450.96 3872.52,1453.23 3882.43,1457.76C3892.34,1462.29 3900.88,1468.41 3908.05,1476.11C3915.22,1483.8 3920.81,1492.76 3924.81,1502.99C3928.82,1513.22 3930.82,1524.03 3930.82,1535.41C3930.82,1536.47 3930.82,1537.79 3930.82,1539.37C3930.82,1540.95 3930.72,1541.95 3930.51,1542.37L3786.27,1542.37C3786.9,1551.86 3789.12,1560.67 3792.91,1568.78C3796.71,1576.9 3801.51,1583.91 3807.3,1589.82C3813.1,1595.72 3819.8,1600.36 3827.39,1603.74C3834.98,1607.11 3843.1,1608.8 3851.75,1608.8C3857.44,1608.8 3863.03,1608.01 3868.51,1606.42C3873.99,1604.84 3879.11,1602.68 3883.85,1599.94C3888.6,1597.2 3892.81,1593.88 3896.5,1589.98C3900.19,1586.08 3903.09,1581.81 3905.2,1577.17L3919.12,1580.96C3916.8,1586.87 3913.37,1592.3 3908.84,1597.25C3904.31,1602.21 3899.03,1606.48 3893.02,1610.06C3887.01,1613.65 3880.42,1616.44 3873.26,1618.44C3866.09,1620.45 3858.7,1621.45 3851.11,1621.45ZM3915.64,1529.72C3915.01,1520.02 3912.85,1511.16 3909.16,1503.15C3905.47,1495.14 3900.72,1488.23 3894.92,1482.43C3889.12,1476.63 3882.43,1472.1 3874.84,1468.83C3867.24,1465.56 3859.13,1463.93 3850.48,1463.93C3841.83,1463.93 3833.72,1465.56 3826.12,1468.83C3818.53,1472.1 3811.84,1476.63 3806.04,1482.43C3800.24,1488.23 3795.6,1495.19 3792.12,1503.31C3788.64,1511.43 3786.59,1520.23 3785.95,1529.72L3915.64,1529.72Z" style="fill:rgb(250,239,240);fill-rule:nonzero;"/>
            <path d="M4006.11,1621.45C3998.51,1621.45 3991.45,1620.13 3984.91,1617.5C3978.38,1614.86 3972.63,1611.28 3967.67,1606.74C3962.72,1602.21 3958.87,1596.83 3956.13,1590.61C3953.39,1584.39 3952.02,1577.69 3952.02,1570.52C3952.02,1563.35 3953.7,1556.82 3957.08,1550.91C3960.45,1545.01 3965.14,1539.89 3971.15,1535.57C3977.16,1531.25 3984.39,1527.88 3992.82,1525.45C4001.26,1523.03 4010.53,1521.81 4020.66,1521.81C4029.51,1521.81 4038.42,1522.6 4047.38,1524.18C4056.35,1525.77 4064.41,1527.93 4071.58,1530.67L4071.58,1514.54C4071.58,1498.93 4067.15,1486.54 4058.3,1477.37C4049.44,1468.2 4037.42,1463.61 4022.24,1463.61C4014.22,1463.61 4005.74,1465.3 3996.77,1468.67C3987.81,1472.05 3978.69,1476.9 3969.41,1483.22L3963.4,1472.47C3984.49,1458.13 4004.52,1450.96 4023.5,1450.96C4043.33,1450.96 4058.93,1456.7 4070.32,1468.2C4081.7,1479.69 4087.4,1495.56 4087.4,1515.8L4087.4,1596.14C4087.4,1601.42 4089.72,1604.05 4094.36,1604.05L4094.36,1618.29C4093.3,1618.5 4092.2,1618.66 4091.04,1618.76C4089.88,1618.87 4088.87,1618.92 4088.03,1618.92C4083.81,1618.92 4080.44,1617.5 4077.91,1614.65C4075.38,1611.8 4073.9,1608.38 4073.48,1604.37L4073.48,1590.77C4065.89,1600.68 4056.19,1608.27 4044.38,1613.54C4032.57,1618.81 4019.81,1621.45 4006.11,1621.45ZM4009.27,1608.8C4021.5,1608.8 4032.73,1606.48 4042.95,1601.84C4053.18,1597.2 4061.04,1591.08 4066.52,1583.49C4069.89,1579.07 4071.58,1574.85 4071.58,1570.84L4071.58,1541.74C4063.99,1538.79 4056.08,1536.57 4047.86,1535.1C4039.63,1533.62 4031.09,1532.88 4022.24,1532.88C4014.01,1532.88 4006.53,1533.78 3999.78,1535.57C3993.03,1537.36 3987.23,1539.84 3982.38,1543.01C3977.53,1546.17 3973.79,1550.02 3971.15,1554.55C3968.52,1559.08 3967.2,1564.09 3967.2,1569.58C3967.2,1575.06 3968.25,1580.22 3970.36,1585.07C3972.47,1589.92 3975.42,1594.09 3979.22,1597.57C3983.01,1601.05 3987.5,1603.79 3992.66,1605.79C3997.83,1607.8 4003.36,1608.8 4009.27,1608.8Z" style="fill:rgb(250,239,240);fill-rule:nonzero;"/>
            <path d="M4203.17,1621.45C4191.78,1621.45 4181.24,1619.08 4171.54,1614.33C4161.84,1609.59 4153.45,1603.26 4146.39,1595.36C4139.32,1587.45 4133.84,1578.38 4129.94,1568.15C4126.04,1557.92 4124.09,1547.33 4124.09,1536.36C4124.09,1524.98 4125.99,1514.12 4129.78,1503.78C4133.58,1493.45 4138.85,1484.38 4145.6,1476.58C4152.35,1468.78 4160.31,1462.56 4169.48,1457.92C4178.65,1453.28 4188.72,1450.96 4199.69,1450.96C4206.86,1450.96 4213.61,1452.01 4219.93,1454.12C4226.26,1456.23 4232.16,1459.03 4237.65,1462.5C4243.13,1465.98 4248.08,1470.04 4252.51,1474.68C4256.94,1479.32 4260.74,1484.28 4263.9,1489.55L4263.9,1387.38L4279.71,1387.38L4279.71,1596.14C4279.71,1601.42 4281.93,1604.05 4286.36,1604.05L4286.36,1618.29C4285.09,1618.5 4284.04,1618.66 4283.19,1618.76C4282.35,1618.87 4281.51,1618.92 4280.66,1618.92C4276.45,1618.92 4272.86,1617.29 4269.91,1614.02C4266.96,1610.75 4265.48,1607.32 4265.48,1603.74L4265.48,1585.39C4258.73,1596.36 4249.72,1605.11 4238.44,1611.64C4227.15,1618.18 4215.4,1621.45 4203.17,1621.45ZM4206.01,1607.22C4211.71,1607.22 4217.82,1606.06 4224.36,1603.74C4230.9,1601.42 4236.96,1598.2 4242.55,1594.09C4248.14,1589.98 4252.93,1585.29 4256.94,1580.01C4260.95,1574.74 4263.27,1569.05 4263.9,1562.93L4263.9,1508.84C4261.58,1502.94 4258.26,1497.3 4253.94,1491.92C4249.61,1486.54 4244.71,1481.9 4239.23,1478C4233.74,1474.1 4227.84,1470.99 4221.51,1468.67C4215.19,1466.35 4209.07,1465.19 4203.17,1465.19C4193.68,1465.19 4185.03,1467.25 4177.23,1471.36C4169.43,1475.47 4162.78,1480.85 4157.3,1487.49C4151.82,1494.13 4147.6,1501.73 4144.65,1510.27C4141.7,1518.81 4140.22,1527.61 4140.22,1536.68C4140.22,1546.17 4141.91,1555.13 4145.28,1563.57C4148.66,1572 4153.35,1579.49 4159.36,1586.02C4165.37,1592.56 4172.33,1597.73 4180.23,1601.52C4188.14,1605.32 4196.73,1607.22 4206.01,1607.22Z" style="fill:rgb(250,239,240);fill-rule:nonzero;"/>
            <path d="M4399.91,1621.45C4388.31,1621.45 4377.56,1619.18 4367.65,1614.65C4357.74,1610.12 4349.14,1603.89 4341.87,1595.99C4334.59,1588.08 4328.9,1578.96 4324.79,1568.63C4320.68,1558.29 4318.62,1547.22 4318.62,1535.41C4318.62,1523.82 4320.68,1512.9 4324.79,1502.67C4328.9,1492.45 4334.54,1483.49 4341.71,1475.79C4348.88,1468.09 4357.37,1462.03 4367.17,1457.6C4376.98,1453.17 4387.58,1450.96 4398.96,1450.96C4410.56,1450.96 4421.32,1453.23 4431.23,1457.76C4441.14,1462.29 4449.68,1468.41 4456.85,1476.11C4464.02,1483.8 4469.61,1492.76 4473.61,1502.99C4477.62,1513.22 4479.62,1524.03 4479.62,1535.41C4479.62,1536.47 4479.62,1537.79 4479.62,1539.37C4479.62,1540.95 4479.52,1541.95 4479.31,1542.37L4335.07,1542.37C4335.7,1551.86 4337.91,1560.67 4341.71,1568.78C4345.51,1576.9 4350.3,1583.91 4356.1,1589.82C4361.9,1595.72 4368.6,1600.36 4376.19,1603.74C4383.78,1607.11 4391.9,1608.8 4400.55,1608.8C4406.24,1608.8 4411.83,1608.01 4417.31,1606.42C4422.79,1604.84 4427.91,1602.68 4432.65,1599.94C4437.4,1597.2 4441.61,1593.88 4445.3,1589.98C4448.99,1586.08 4451.89,1581.81 4454,1577.17L4467.92,1580.96C4465.6,1586.87 4462.17,1592.3 4457.64,1597.25C4453.11,1602.21 4447.83,1606.48 4441.82,1610.06C4435.81,1613.65 4429.22,1616.44 4422.05,1618.44C4414.88,1620.45 4407.5,1621.45 4399.91,1621.45ZM4464.44,1529.72C4463.81,1520.02 4461.65,1511.16 4457.95,1503.15C4454.27,1495.14 4449.52,1488.23 4443.72,1482.43C4437.92,1476.63 4431.23,1472.1 4423.64,1468.83C4416.04,1465.56 4407.93,1463.93 4399.28,1463.93C4390.63,1463.93 4382.52,1465.56 4374.92,1468.83C4367.33,1472.1 4360.64,1476.63 4354.84,1482.43C4349.04,1488.23 4344.4,1495.19 4340.92,1503.31C4337.44,1511.43 4335.39,1520.23 4334.75,1529.72L4464.44,1529.72Z" style="fill:rgb(250,239,240);fill-rule:nonzero;"/>
            <path d="M4592.23,1468.04C4577.47,1468.46 4564.55,1472.84 4553.48,1481.17C4542.41,1489.5 4534.66,1500.94 4530.23,1515.49L4530.23,1618.29L4514.42,1618.29L4514.42,1453.81L4529.6,1453.81L4529.6,1494.29C4535.29,1482.69 4542.83,1473.26 4552.22,1465.98C4561.6,1458.71 4571.67,1454.54 4582.42,1453.49C4584.53,1453.28 4586.43,1453.17 4588.12,1453.17C4589.8,1453.17 4591.18,1453.17 4592.23,1453.17L4592.23,1468.04Z" style="fill:rgb(250,239,240);fill-rule:nonzero;"/>
        </g>
    </g>
</svg>
